<svg width="82" height="93" viewBox="0 0 82 93" fill="none" xmlns="http://www.w3.org/2000/svg">
<g filter="url(#filter0_ddddd_2130_500)">
<path d="M71.5813 29.1313C70.4031 27.9 69.1844 26.6313 68.725 25.5156C68.3 24.4937 68.275 22.8 68.25 21.1594C68.2031 18.1094 68.1531 14.6531 65.75 12.25C63.3469 9.84688 59.8906 9.79687 56.8406 9.75C55.2 9.725 53.5062 9.7 52.4844 9.275C51.3719 8.81562 50.1 7.59687 48.8687 6.41875C46.7125 4.34687 44.2625 2 41 2C37.7375 2 35.2906 4.34687 33.1313 6.41875C31.9 7.59687 30.6313 8.81562 29.5156 9.275C28.5 9.7 26.8 9.725 25.1594 9.75C22.1094 9.79687 18.6531 9.84688 16.25 12.25C13.8469 14.6531 13.8125 18.1094 13.75 21.1594C13.725 22.8 13.7 24.4937 13.275 25.5156C12.8156 26.6281 11.5969 27.9 10.4187 29.1313C8.34687 31.2875 6 33.7375 6 37C6 40.2625 8.34687 42.7094 10.4187 44.8687C11.5969 46.1 12.8156 47.3688 13.275 48.4844C13.7 49.5062 13.725 51.2 13.75 52.8406C13.7969 55.8906 13.8469 59.3469 16.25 61.75C18.6531 64.1531 22.1094 64.2031 25.1594 64.25C26.8 64.275 28.4937 64.3 29.5156 64.725C30.6281 65.1844 31.9 66.4031 33.1313 67.5813C35.2875 69.6531 37.7375 72 41 72C44.2625 72 46.7094 69.6531 48.8687 67.5813C50.1 66.4031 51.3688 65.1844 52.4844 64.725C53.5062 64.3 55.2 64.275 56.8406 64.25C59.8906 64.2031 63.3469 64.1531 65.75 61.75C68.1531 59.3469 68.2031 55.8906 68.25 52.8406C68.275 51.2 68.3 49.5062 68.725 48.4844C69.1844 47.3719 70.4031 46.1 71.5813 44.8687C73.6531 42.7125 76 40.2625 76 37C76 33.7375 73.6531 31.2906 71.5813 29.1313ZM55.2688 31.2688L37.7688 48.7687C37.5366 49.0012 37.2608 49.1856 36.9574 49.3114C36.6539 49.4372 36.3285 49.502 36 49.502C35.6715 49.502 35.3461 49.4372 35.0427 49.3114C34.7392 49.1856 34.4634 49.0012 34.2313 48.7687L26.7312 41.2688C26.2621 40.7997 25.9986 40.1634 25.9986 39.5C25.9986 38.8366 26.2621 38.2004 26.7312 37.7312C27.2003 37.2621 27.8366 36.9986 28.5 36.9986C29.1634 36.9986 29.7997 37.2621 30.2688 37.7312L36 43.4656L51.7313 27.7313C51.9635 27.499 52.2393 27.3147 52.5428 27.189C52.8462 27.0633 53.1715 26.9986 53.5 26.9986C53.8285 26.9986 54.1538 27.0633 54.4572 27.189C54.7607 27.3147 55.0365 27.499 55.2688 27.7313C55.501 27.9635 55.6853 28.2393 55.811 28.5428C55.9367 28.8462 56.0014 29.1715 56.0014 29.5C56.0014 29.8285 55.9367 30.1538 55.811 30.4572C55.6853 30.7607 55.501 31.0365 55.2688 31.2688Z" fill="#45B442"/>
<path d="M41 3.75C43.4382 3.75 45.3822 5.49556 47.6562 7.68066L47.6592 7.68359C48.2644 8.26273 48.9351 8.90611 49.6006 9.46094C50.2511 10.0033 51.0109 10.5589 51.8164 10.8916C52.5864 11.2111 53.4863 11.3401 54.2861 11.4062C55.112 11.4745 56.0074 11.4877 56.8135 11.5C60.0216 11.5493 62.6947 11.6693 64.5127 13.4873C66.3307 15.3053 66.4507 17.9784 66.5 21.1865C66.5123 21.9926 66.5255 22.888 66.5938 23.7139C66.6598 24.5126 66.788 25.4113 67.1064 26.1807V26.1816C67.4393 26.99 67.9972 27.7507 68.54 28.4014C69.0949 29.0664 69.7381 29.7364 70.3164 30.3408L70.3184 30.3428C72.505 32.6217 74.25 34.5618 74.25 37C74.25 39.4382 72.5044 41.3822 70.3193 43.6562L70.3164 43.6592C69.7373 44.2644 69.0939 44.9351 68.5391 45.6006C67.9976 46.2501 67.4422 47.0084 67.1094 47.8125C66.7888 48.5833 66.66 49.485 66.5938 50.2861C66.5255 51.112 66.5123 52.0074 66.5 52.8135C66.4507 56.0216 66.3307 58.6947 64.5127 60.5127C62.6947 62.3307 60.0216 62.4507 56.8135 62.5C56.0074 62.5123 55.112 62.5255 54.2861 62.5938C53.5852 62.6517 52.8073 62.7577 52.1074 62.998L51.8184 63.1064C51.01 63.4393 50.2493 63.9972 49.5986 64.54C48.9336 65.0949 48.2636 65.7381 47.6592 66.3164L47.6572 66.3184C45.3783 68.505 43.4382 70.25 41 70.25C38.5618 70.25 36.6178 68.5044 34.3438 66.3193L34.3408 66.3164C33.7356 65.7373 33.0649 65.0939 32.3994 64.5391C31.7488 63.9966 30.9882 63.4401 30.1826 63.1074C29.4129 62.7883 28.5133 62.6598 27.7139 62.5938C26.888 62.5255 25.9926 62.5123 25.1865 62.5C21.9784 62.4507 19.3053 62.3307 17.4873 60.5127C15.6693 58.6947 15.5493 56.0216 15.5 52.8135C15.4877 52.0074 15.4745 51.112 15.4062 50.2861C15.3402 49.487 15.2114 48.5879 14.8926 47.8184H14.8936C14.5607 47.01 14.0028 46.2493 13.46 45.5986C12.9051 44.9336 12.2619 44.2636 11.6836 43.6592L11.6816 43.6572L10.8848 42.8164C9.08601 40.8851 7.75 39.1334 7.75 37C7.75 34.5618 9.49556 32.6178 11.6807 30.3438L11.6836 30.3408C12.2627 29.7356 12.9061 29.0649 13.4609 28.3994C14.0034 27.7488 14.5589 26.9882 14.8916 26.1826C15.2108 25.4128 15.3402 24.5134 15.4062 23.7139C15.4743 22.891 15.4878 21.9991 15.5 21.1953C15.5661 17.9698 15.6695 15.3051 17.4873 13.4873C19.3053 11.6693 21.9784 11.5493 25.1865 11.5C25.9925 11.4877 26.8892 11.4745 27.7158 11.4062C28.513 11.3404 29.4126 11.2118 30.1807 10.8926L30.1816 10.8936C30.1848 10.8923 30.1883 10.8909 30.1914 10.8896L30.1904 10.8887C30.9955 10.5554 31.7531 10.0008 32.4014 9.45996C33.0664 8.90514 33.7364 8.26192 34.3408 7.68359L34.3428 7.68164C36.6218 5.49501 38.5618 3.75 41 3.75ZM53.5 25.249C52.9417 25.249 52.3889 25.3586 51.873 25.5723C51.3572 25.7859 50.8889 26.0994 50.4941 26.4941L36 40.9902L31.5068 36.4941H31.5059C30.7086 35.6968 29.6275 35.249 28.5 35.249C27.3725 35.249 26.2914 35.6968 25.4941 36.4941C24.6969 37.2914 24.249 38.3725 24.249 39.5C24.249 40.6275 24.6968 41.7086 25.4941 42.5059L32.9932 50.0049V50.0059C33.3877 50.4008 33.8564 50.7139 34.3721 50.9277C34.888 51.1416 35.4415 51.252 36 51.252C36.5585 51.252 37.112 51.1416 37.6279 50.9277C38.1436 50.7139 38.6123 50.4008 39.0068 50.0059L39.0059 50.0049L56.5059 32.5059C56.9006 32.1111 57.2141 31.6427 57.4277 31.127C57.6414 30.6112 57.751 30.0583 57.751 29.5C57.751 28.9417 57.6414 28.3888 57.4277 27.873C57.2141 27.3573 56.9006 26.8889 56.5059 26.4941C56.1111 26.0994 55.6427 25.7859 55.127 25.5723C54.6111 25.3586 54.0583 25.249 53.5 25.249Z" stroke="white" stroke-width="3.5"/>
</g>
<defs>
<filter id="filter0_ddddd_2130_500" x="0.75" y="0.25" width="80.5" height="98" filterUnits="userSpaceOnUse" color-interpolation-filters="sRGB">
<feFlood flood-opacity="0" result="BackgroundImageFix"/>
<feColorMatrix in="SourceAlpha" type="matrix" values="0 0 0 0 0 0 0 0 0 0 0 0 0 0 0 0 0 0 127 0" result="hardAlpha"/>
<feOffset/>
<feGaussianBlur stdDeviation="0.875"/>
<feColorMatrix type="matrix" values="0 0 0 0 0 0 0 0 0 0 0 0 0 0 0 0 0 0 0.29 0"/>
<feBlend mode="normal" in2="BackgroundImageFix" result="effect1_dropShadow_2130_500"/>
<feColorMatrix in="SourceAlpha" type="matrix" values="0 0 0 0 0 0 0 0 0 0 0 0 0 0 0 0 0 0 127 0" result="hardAlpha"/>
<feOffset dy="3.5"/>
<feGaussianBlur stdDeviation="1.75"/>
<feColorMatrix type="matrix" values="0 0 0 0 0 0 0 0 0 0 0 0 0 0 0 0 0 0 0.26 0"/>
<feBlend mode="normal" in2="effect1_dropShadow_2130_500" result="effect2_dropShadow_2130_500"/>
<feColorMatrix in="SourceAlpha" type="matrix" values="0 0 0 0 0 0 0 0 0 0 0 0 0 0 0 0 0 0 127 0" result="hardAlpha"/>
<feOffset dy="7"/>
<feGaussianBlur stdDeviation="2.625"/>
<feColorMatrix type="matrix" values="0 0 0 0 0 0 0 0 0 0 0 0 0 0 0 0 0 0 0.15 0"/>
<feBlend mode="normal" in2="effect2_dropShadow_2130_500" result="effect3_dropShadow_2130_500"/>
<feColorMatrix in="SourceAlpha" type="matrix" values="0 0 0 0 0 0 0 0 0 0 0 0 0 0 0 0 0 0 127 0" result="hardAlpha"/>
<feOffset dy="14"/>
<feGaussianBlur stdDeviation="2.625"/>
<feColorMatrix type="matrix" values="0 0 0 0 0 0 0 0 0 0 0 0 0 0 0 0 0 0 0.04 0"/>
<feBlend mode="normal" in2="effect3_dropShadow_2130_500" result="effect4_dropShadow_2130_500"/>
<feColorMatrix in="SourceAlpha" type="matrix" values="0 0 0 0 0 0 0 0 0 0 0 0 0 0 0 0 0 0 127 0" result="hardAlpha"/>
<feOffset dy="21"/>
<feGaussianBlur stdDeviation="2.625"/>
<feColorMatrix type="matrix" values="0 0 0 0 0 0 0 0 0 0 0 0 0 0 0 0 0 0 0.01 0"/>
<feBlend mode="normal" in2="effect4_dropShadow_2130_500" result="effect5_dropShadow_2130_500"/>
<feBlend mode="normal" in="SourceGraphic" in2="effect5_dropShadow_2130_500" result="shape"/>
</filter>
</defs>
</svg>
