<svg width="76" height="90" viewBox="0 0 76 90" fill="none" xmlns="http://www.w3.org/2000/svg">
<g filter="url(#filter0_ddddd_2130_526)">
<path d="M65.7159 20.1432H54.6665C54.7894 20.0392 54.9153 19.9384 55.035 19.8282C55.9917 18.9783 56.7626 17.9402 57.2997 16.7787C57.8368 15.6173 58.1285 14.3575 58.1565 13.0782C58.1978 11.6787 57.9527 10.2855 57.4362 8.98408C56.9197 7.68271 56.1426 6.50064 55.1527 5.51044C54.1628 4.52024 52.9809 3.74282 51.6797 3.22589C50.3785 2.70896 48.9854 2.46344 47.5858 2.5044C46.306 2.53196 45.0456 2.82342 43.8836 3.36053C42.7216 3.89764 41.6829 4.66883 40.8327 5.62583C39.6562 6.98935 38.6997 8.52817 37.9979 10.1867C37.296 8.52817 36.3396 6.98935 35.1631 5.62583C34.3128 4.66883 33.2742 3.89764 32.1122 3.36053C30.9502 2.82342 29.6898 2.53196 28.41 2.5044C27.0104 2.46344 25.6173 2.70896 24.316 3.22589C23.0148 3.74282 21.833 4.52024 20.8431 5.51044C19.8532 6.50064 19.0761 7.68271 18.5596 8.98408C18.043 10.2855 17.7979 11.6787 17.8393 13.0782C17.8673 14.3575 18.159 15.6173 18.696 16.7787C19.2331 17.9402 20.0041 18.9783 20.9607 19.8282C21.0804 19.9321 21.2064 20.0329 21.3292 20.1432H10.2798C8.94322 20.1432 7.66137 20.6741 6.71625 21.6192C5.77113 22.5644 5.24017 23.8462 5.24017 25.1828V35.2621C5.24017 36.5987 5.77113 37.8806 6.71625 38.8257C7.66137 39.7708 8.94322 40.3018 10.2798 40.3018V60.4604C10.2798 61.7969 10.8108 63.0788 11.7559 64.0239C12.701 64.969 13.9829 65.5 15.3195 65.5H34.2181C34.5523 65.5 34.8728 65.3673 35.109 65.131C35.3453 64.8947 35.4781 64.5742 35.4781 64.2401V35.2621H10.2798V25.1828H35.4781V35.2621H40.5177V25.1828H65.7159V35.2621H40.5177V64.2401C40.5177 64.5742 40.6504 64.8947 40.8867 65.131C41.123 65.3673 41.4435 65.5 41.7776 65.5H60.6763C62.0129 65.5 63.2947 64.969 64.2399 64.0239C65.185 63.0788 65.7159 61.7969 65.7159 60.4604V40.3018C67.0525 40.3018 68.3344 39.7708 69.2795 38.8257C70.2246 37.8806 70.7556 36.5987 70.7556 35.2621V25.1828C70.7556 23.8462 70.2246 22.5644 69.2795 21.6192C68.3344 20.6741 67.0525 20.1432 65.7159 20.1432ZM24.2995 16.0485C23.8589 15.6495 23.5056 15.1637 23.2616 14.6217C23.0177 14.0796 22.8885 13.493 22.8821 12.8987C22.8662 12.2023 22.9894 11.5097 23.2445 10.8615C23.4997 10.2133 23.8816 9.62258 24.368 9.12389C24.8544 8.62521 25.4354 8.22861 26.077 7.95733C26.7185 7.68604 27.4078 7.54554 28.1044 7.54405H28.2588C28.8531 7.55046 29.4397 7.67968 29.9818 7.92359C30.5238 8.16751 31.0096 8.52086 31.4085 8.96145C34.0512 11.9474 34.9835 16.8989 35.3111 19.9605C32.2369 19.6361 27.2886 18.7037 24.2995 16.0485ZM51.7026 16.0485C48.7134 18.6943 43.7525 19.6266 40.6783 19.9542C41.0532 16.6438 42.0926 11.7962 44.6124 8.9646C45.0114 8.52401 45.4972 8.17066 46.0392 7.92674C46.5812 7.68283 47.1678 7.55361 47.7622 7.54719H47.9165C48.6132 7.55155 49.3019 7.69491 49.9424 7.96886C50.583 8.24282 51.1624 8.64186 51.6467 9.14261C52.131 9.64336 52.5105 10.2357 52.7629 10.885C53.0154 11.5343 53.1357 12.2275 53.1168 12.9239C53.1066 13.5142 52.9752 14.0961 52.7308 14.6336C52.4865 15.1711 52.1344 15.6526 51.6963 16.0485H51.7026Z" fill="#D658B3"/>
<path d="M28.1005 5.79395C27.1711 5.79596 26.2515 5.98375 25.3954 6.3457C24.5394 6.70767 23.7641 7.23697 23.1152 7.90234C22.4663 8.5677 21.9566 9.35592 21.6161 10.2207C21.2784 11.0788 21.1145 11.9952 21.1328 12.917L21.1318 12.918C21.1408 13.7534 21.3231 14.5779 21.666 15.3398C22.0089 16.1018 22.5056 16.7848 23.1249 17.3457L23.1308 17.3516L23.1376 17.3564C24.8962 18.9186 27.1479 19.9099 29.2656 20.5527C31.4009 21.2008 33.5237 21.5319 35.1279 21.7012L37.2812 21.9277L37.0507 19.7744C36.8799 18.1776 36.5489 16.058 35.9023 13.9248C35.2612 11.8098 34.2737 9.55874 32.7187 7.80176L32.7128 7.79395L32.706 7.78711L32.4902 7.56055C31.9733 7.04577 31.3669 6.62822 30.7001 6.32812C29.9381 5.98522 29.1129 5.80296 28.2773 5.79395H28.1005ZM12.0302 38.5518H10.2802C9.40775 38.5518 8.57097 38.2048 7.95404 37.5879C7.33711 36.971 6.99017 36.1342 6.99017 35.2617V25.1826C6.99023 24.3102 7.33716 23.4733 7.95404 22.8564C8.57094 22.2397 9.40788 21.8936 10.2802 21.8936H25.8994L22.498 18.8408C22.3989 18.7519 22.1789 18.5666 22.121 18.5176C21.3455 17.828 20.7197 16.9859 20.2841 16.0439C19.8482 15.1012 19.6115 14.0785 19.5888 13.04V13.0264L19.5869 12.5918C19.6086 11.5778 19.8114 10.5747 20.1865 9.62988C20.615 8.55017 21.2597 7.56958 22.081 6.74805C22.9022 5.92659 23.8824 5.28142 24.9619 4.85254C26.0413 4.42371 27.1973 4.21998 28.3583 4.25391H28.372C29.4111 4.27629 30.4345 4.51317 31.3779 4.94922C32.3164 5.38301 33.1554 6.00502 33.8437 6.77637C34.8985 8.00028 35.757 9.38114 36.3867 10.8691L37.998 14.6768L39.6093 10.8691C40.2388 9.38149 41.0959 8.00007 42.1503 6.77637C42.8387 6.00462 43.6793 5.38317 44.6181 4.94922C45.5614 4.51322 46.585 4.27628 47.624 4.25391H47.6367C48.7976 4.21993 49.9537 4.42286 51.0331 4.85156V4.85254C52.1127 5.28142 53.0937 5.9265 53.915 6.74805C54.7362 7.56956 55.381 8.55022 55.8095 9.62988C56.238 10.7095 56.4415 11.8653 56.4072 13.0264V13.04C56.3979 13.4638 56.351 13.8847 56.2714 14.2988H54.6894C54.7963 13.8649 54.8562 13.4198 54.8652 12.9707L54.8661 12.9717C54.8913 12.0426 54.7312 11.1173 54.3945 10.251C54.0576 9.38462 53.5505 8.59392 52.9042 7.92578C52.2581 7.25776 51.4853 6.72486 50.6308 6.35938C49.7762 5.99387 48.8571 5.80271 47.9277 5.79688H47.7431C46.9076 5.80592 46.0832 5.9882 45.3212 6.33105C44.5592 6.67396 43.8763 7.17064 43.3154 7.79004L43.3105 7.7959L43.3046 7.80078C41.8134 9.47656 40.8302 11.6594 40.1718 13.7559C39.5073 15.8718 39.1353 18.0268 38.9394 19.7568L38.6943 21.9258L40.8642 21.6943C42.4672 21.5235 44.592 21.1928 46.7294 20.5459C48.8488 19.9044 51.1033 18.9153 52.8622 17.3584L56.2597 14.3516C56.1435 14.9338 55.9614 15.5023 55.7109 16.0439C55.2749 16.9867 54.6495 17.8296 53.873 18.5195L53.8495 18.541C53.7655 18.6184 53.708 18.6621 53.5361 18.8076L49.8896 21.8936H65.7158C66.5881 21.8936 67.425 22.2396 68.0419 22.8564C68.6588 23.4733 69.0057 24.3102 69.0058 25.1826V35.2617C69.0058 36.1341 68.6588 36.971 68.0419 37.5879C67.425 38.2048 66.5882 38.5518 65.7158 38.5518H63.9658V60.46C63.9658 61.3322 63.6196 62.1692 63.0029 62.7861C62.386 63.403 61.549 63.7499 60.6767 63.75H42.2675V37.0117H67.4658V23.4326H38.7675V33.5117H37.2285V23.4326H8.53021V37.0117H33.7285V63.75H15.3193C14.4469 63.7499 13.61 63.403 12.9931 62.7861C12.3764 62.1692 12.0302 61.3323 12.0302 60.46V38.5518Z" stroke="white" stroke-width="3.5"/>
</g>
<defs>
<filter id="filter0_ddddd_2130_526" x="-0.00982714" y="0.75" width="76.0154" height="91" filterUnits="userSpaceOnUse" color-interpolation-filters="sRGB">
<feFlood flood-opacity="0" result="BackgroundImageFix"/>
<feColorMatrix in="SourceAlpha" type="matrix" values="0 0 0 0 0 0 0 0 0 0 0 0 0 0 0 0 0 0 127 0" result="hardAlpha"/>
<feOffset/>
<feGaussianBlur stdDeviation="0.875"/>
<feColorMatrix type="matrix" values="0 0 0 0 0 0 0 0 0 0 0 0 0 0 0 0 0 0 0.29 0"/>
<feBlend mode="normal" in2="BackgroundImageFix" result="effect1_dropShadow_2130_526"/>
<feColorMatrix in="SourceAlpha" type="matrix" values="0 0 0 0 0 0 0 0 0 0 0 0 0 0 0 0 0 0 127 0" result="hardAlpha"/>
<feOffset dy="3.5"/>
<feGaussianBlur stdDeviation="1.75"/>
<feColorMatrix type="matrix" values="0 0 0 0 0 0 0 0 0 0 0 0 0 0 0 0 0 0 0.26 0"/>
<feBlend mode="normal" in2="effect1_dropShadow_2130_526" result="effect2_dropShadow_2130_526"/>
<feColorMatrix in="SourceAlpha" type="matrix" values="0 0 0 0 0 0 0 0 0 0 0 0 0 0 0 0 0 0 127 0" result="hardAlpha"/>
<feOffset dy="7"/>
<feGaussianBlur stdDeviation="2.625"/>
<feColorMatrix type="matrix" values="0 0 0 0 0 0 0 0 0 0 0 0 0 0 0 0 0 0 0.15 0"/>
<feBlend mode="normal" in2="effect2_dropShadow_2130_526" result="effect3_dropShadow_2130_526"/>
<feColorMatrix in="SourceAlpha" type="matrix" values="0 0 0 0 0 0 0 0 0 0 0 0 0 0 0 0 0 0 127 0" result="hardAlpha"/>
<feOffset dy="14"/>
<feGaussianBlur stdDeviation="2.625"/>
<feColorMatrix type="matrix" values="0 0 0 0 0 0 0 0 0 0 0 0 0 0 0 0 0 0 0.04 0"/>
<feBlend mode="normal" in2="effect3_dropShadow_2130_526" result="effect4_dropShadow_2130_526"/>
<feColorMatrix in="SourceAlpha" type="matrix" values="0 0 0 0 0 0 0 0 0 0 0 0 0 0 0 0 0 0 127 0" result="hardAlpha"/>
<feOffset dy="21"/>
<feGaussianBlur stdDeviation="2.625"/>
<feColorMatrix type="matrix" values="0 0 0 0 0 0 0 0 0 0 0 0 0 0 0 0 0 0 0.01 0"/>
<feBlend mode="normal" in2="effect4_dropShadow_2130_526" result="effect5_dropShadow_2130_526"/>
<feBlend mode="normal" in="SourceGraphic" in2="effect5_dropShadow_2130_526" result="shape"/>
</filter>
</defs>
</svg>
